<svg xmlns="http://www.w3.org/2000/svg" width="550" height="554" viewBox="0 0 550 554">
    <g fill="none" fill-rule="evenodd">
        <path fill="#333" d="M483.633 433.191c10.897 3.02 18.065 8.14 18.065 13.95 0 9.284-18.306 16.811-40.89 16.811-9.243 0-17.767-1.262-24.613-3.39l-161.462 93.16L0 395.207 274.99 236.84l274.988 158.072-66.345 38.28z" opacity=".23"/>
        <path fill="#2D878A" d="M20.877 338.857L274.99 485.475l254.585-146.89-254.348-146.208z"/>
        <path fill="#2D878A" d="M49.591 338.868l225.642-129.947L500.84 338.61 274.989 468.918z"/>
        <path fill="#246166" d="M20.877 338.857v50.553L274.99 536.028v-50.553z"/>
        <path fill="#164C57" d="M529.574 338.585L274.99 485.475v50.553l254.585-146.89z"/>
        <path fill="#F66B5F" d="M405.075 306.631l2.194-.749s-1.7-26.377-14.006-46.52c-11.417-18.691-20.201-23.368-20.201-23.368l-2.479 1.37s26.122 23.888 34.492 69.267"/>
        <path fill="#DC4241" d="M370.584 237.364s28.568 19.255 34.491 69.267c-11.926-13.17-23.628-23.82-34.491-24.9v-44.367z"/>
        <path fill="#FFF" d="M386.466 305.95c.06 13.117-15.282 23.82-34.268 23.907-18.992.085-34.429-10.478-34.49-23.597l-.423-93.18 68.758-.312.4 92.446c.015.241.021.488.023.736"/>
        <path fill="#2D878A" d="M386.043 212.768s-10.391 13.987-34.326 14.097c-23.933.109-34.431-13.784-34.431-13.784s2.917-49.533 34.037-76.077c31.358 26.262 34.72 75.764 34.72 75.764"/>
        <path fill="#246166" d="M386.043 212.768s-10.391 13.987-34.326 14.097c-23.933.109-34.431-13.784-34.431-13.784 9.364 7.968 38.993 15.506 46.52-6.512 7.527-22.023-12.483-69.565-12.483-69.565 31.358 26.262 34.72 75.764 34.72 75.764"/>
        <path fill="#DC4241" d="M386.537 321.405c.058 13.118-15.282 23.82-34.268 23.907-18.992.086-34.43-10.478-34.49-23.596l-.07-15.454c.06 13.118 15.498 23.68 34.49 23.596 18.625-.086 33.748-10.391 34.252-23.173l.063 13.984c.013.242.021.487.023.736"/>
        <path fill="#F66B5F" d="M386.508 315.068c.001.248-.004.494-.016.737-.506 12.78-15.627 23.085-34.252 23.17-18.992.086-34.43-10.478-34.49-23.595l-.041-9.117c.06 13.117 15.498 23.68 34.49 23.594 18.626-.084 33.747-10.39 34.251-23.172l.035 7.647c.013.241.021.488.023.736"/>
        <path fill="#DDE3E8" d="M386.508 291.893c.001.248-.004.495-.016.736-.506 12.78-15.627 23.087-34.252 23.171-18.992.087-34.43-10.477-34.49-23.595l-.041-9.118c.06 13.118 15.498 23.68 34.49 23.596 18.626-.086 33.747-10.393 34.251-23.173l.035 7.648c.013.24.021.487.023.735"/>
        <path fill="#DDE3E8" d="M386.508 270.682c.001.247-.004.494-.016.735-.506 12.781-15.627 23.087-34.252 23.171-18.992.087-34.43-10.477-34.49-23.594l-.041-9.119c.06 13.118 15.498 23.682 34.49 23.595 18.626-.085 33.747-10.39 34.251-23.171l.035 7.647c.013.241.021.488.023.736"/>
        <path fill="#FFF" d="M348.054 326.801c.115 25.354-29.537 46.038-66.23 46.205-36.704.167-66.543-20.249-66.658-45.602l-.818-180.092 132.888-.603.775 178.67c.025.465.04.945.043 1.422"/>
        <path fill="#2D878A" d="M347.235 146.71s-20.083 27.034-66.338 27.245c-46.258.209-66.55-26.643-66.55-26.643S219.988 51.582 280.13.28c60.608 50.756 67.105 146.43 67.105 146.43"/>
        <path fill="#246166" d="M347.235 146.71s-20.083 27.034-66.338 27.245c-46.258.209-66.55-26.643-66.55-26.643 18.1 15.403 75.363 29.97 89.911-12.583C318.807 92.164 280.13.28 280.13.28c60.608 50.756 67.105 146.43 67.105 146.43"/>
        <path fill="#DC4241" d="M348.189 356.67c.115 25.356-29.538 46.04-66.23 46.206-36.703.167-66.543-20.249-66.658-45.602l-.136-29.869c.116 25.352 29.954 45.768 66.658 45.601 36-.163 65.224-20.081 66.2-44.782l.124 27.025c.025.467.04.945.042 1.422"/>
        <path fill="#F66B5F" d="M348.133 344.425c0 .478-.008.956-.03 1.422-.975 24.702-30.201 44.62-66.198 44.783-36.704.166-66.544-20.249-66.66-45.603l-.08-17.621c.116 25.352 29.954 45.767 66.658 45.601 36-.163 65.224-20.082 66.2-44.784l.067 14.78c.026.466.04.945.043 1.422"/>
        <path fill="#DDE3E8" d="M347.966 307.687c.002.477-.008.957-.029 1.423-.977 24.7-30.201 44.618-66.2 44.781-36.704.168-66.544-20.247-66.659-45.6l-.08-17.624c.115 25.353 29.955 45.769 66.659 45.603 35.998-.164 65.223-20.082 66.2-44.785l.067 14.78c.026.466.04.945.042 1.422"/>
        <path fill="#DDE3E8" d="M347.788 268.494c.002.477-.008.955-.029 1.421-.977 24.702-30.201 44.62-66.2 44.783-36.704.166-66.544-20.248-66.659-45.601l-.08-17.623c.115 25.353 29.955 45.769 66.659 45.602 35.998-.164 65.223-20.083 66.2-44.784l.067 14.78c.026.467.04.944.042 1.422"/>
        <path fill="#FFF" d="M241.954 356.575c.06 13.12-15.282 23.821-34.268 23.909-18.992.085-34.43-10.479-34.49-23.597l-.423-93.18 68.758-.312.401 92.445c.014.24.02.487.022.735"/>
        <path fill="#2D878A" d="M241.53 263.395s-10.39 13.987-34.325 14.096c-23.933.11-34.431-13.784-34.431-13.784s2.917-49.532 34.037-76.077c31.357 26.262 34.72 75.765 34.72 75.765"/>
        <path fill="#246166" d="M241.53 263.395s-10.39 13.987-34.325 14.096c-23.933.11-34.431-13.784-34.431-13.784 9.364 7.969 38.993 15.506 46.52-6.511 7.527-22.023-12.483-69.566-12.483-69.566 31.357 26.262 34.72 75.765 34.72 75.765"/>
        <path fill="#DC4241" d="M242.024 372.031c.06 13.118-15.283 23.82-34.268 23.907-18.991.085-34.43-10.477-34.489-23.596l-.07-15.454c.06 13.117 15.498 23.681 34.49 23.596 18.625-.086 33.747-10.392 34.253-23.172l.061 13.983c.014.242.022.488.023.736"/>
        <path fill="#F66B5F" d="M241.996 365.695c0 .247-.005.494-.017.735-.504 12.781-15.625 23.087-34.251 23.171-18.992.086-34.43-10.477-34.49-23.596l-.041-9.117c.06 13.118 15.498 23.682 34.489 23.595 18.627-.085 33.748-10.391 34.253-23.171l.034 7.647c.013.241.021.488.023.736"/>
        <path fill="#DDE3E8" d="M241.996 343.137c0 .248-.005.495-.017.737-.504 12.78-15.625 23.085-34.251 23.171-18.992.086-34.43-10.478-34.49-23.596l-.041-9.118c.06 13.119 15.498 23.682 34.489 23.594 18.627-.083 33.748-10.39 34.253-23.17l.034 7.647c.013.24.021.487.023.735"/>
        <path fill="#DDE3E8" d="M241.996 323.07c0 .247-.005.494-.017.736-.504 12.78-15.625 23.086-34.251 23.171-18.992.086-34.43-10.478-34.49-23.595l-.041-9.117c.06 13.117 15.498 23.68 34.489 23.594 18.627-.084 33.748-10.391 34.253-23.172l.034 7.647c.013.241.021.488.023.735"/>
        <path fill="#DC4241" d="M341.44 223.422c0 20.846-13.017 37.746-29.074 37.746-16.058 0-29.075-16.9-29.075-37.746 0-20.848 13.017-37.747 29.075-37.747 16.057 0 29.075 16.899 29.075 37.747"/>
        <path fill="#F66B5F" d="M344.324 223.422c0 20.846-13.018 37.746-29.075 37.746-16.06 0-29.077-16.9-29.077-37.746 0-20.848 13.018-37.747 29.077-37.747 16.057 0 29.075 16.899 29.075 37.747"/>
        <path fill="#DC4241" d="M340.68 223.716c0 17.316-10.806 31.346-24.148 31.346-.37 0-.74-.01-1.11-.042a.267.267 0 0 1-.13 0c-12.754-.84-22.904-14.532-22.904-31.304 0-16.774 10.15-30.466 22.904-31.303a.238.238 0 0 1 .13 0c.37-.034.74-.045 1.11-.045 13.342 0 24.148 14.03 24.148 31.348"/>
        <path fill="#8093D6" d="M338.327 223.716c0 16.772-10.151 30.465-22.904 31.304a.272.272 0 0 1-.132 0 12.662 12.662 0 0 1-1.426-.164c-12.08-1.71-21.479-14.999-21.479-31.14s9.4-29.432 21.479-31.141c.469-.087.948-.13 1.426-.162a.243.243 0 0 1 .132 0c12.753.837 22.904 14.53 22.904 31.303"/>
        <path fill="#A9CEEB" d="M335.332 223.716c0 16.141-9.4 29.42-21.468 31.14-12.078-1.71-21.477-14.999-21.477-31.14s9.4-29.432 21.477-31.141c12.067 1.72 21.468 15 21.468 31.141"/>
        <path fill="#F66B5F" d="M154.358 369.223l-2.445-.834s1.896-29.4 15.61-51.852c12.725-20.833 22.516-26.046 22.516-26.046l2.763 1.527s-29.116 26.625-38.444 77.205"/>
        <path fill="#DC4241" d="M192.802 292.018s-31.843 21.462-38.444 77.205c13.29-14.68 26.337-26.55 38.443-27.754v-49.45z"/>
        <path fill="#164C57" d="M311.407 431.74a2.989 2.989 0 0 0 3.19-3.33L287.91 202.374a2.99 2.99 0 0 0-5.937.7l26.685 226.035a2.991 2.991 0 0 0 2.748 2.63M351.468 410.575a2.986 2.986 0 0 0 3.188-3.33l-26.425-223.83a2.987 2.987 0 0 0-3.32-2.617 2.99 2.99 0 0 0-2.618 3.318l26.427 223.83a2.989 2.989 0 0 0 2.748 2.63"/>
        <path fill="#164C57" d="M288.217 219.087a2.977 2.977 0 0 0 1.518-.291l37.87-18.325a2.986 2.986 0 1 0-2.605-5.377L287.13 213.42a2.987 2.987 0 0 0 1.088 5.668M292.274 251.9a2.98 2.98 0 0 0 1.518-.291l38.28-18.521a2.988 2.988 0 1 0-2.607-5.378l-38.28 18.522a2.988 2.988 0 0 0 1.09 5.669M296.333 284.714a2.976 2.976 0 0 0 1.516-.292l38.105-18.437a2.986 2.986 0 1 0-2.605-5.376l-38.105 18.437a2.986 2.986 0 0 0 1.089 5.668M300.39 317.529a2.976 2.976 0 0 0 1.517-.292l37.83-18.306a2.988 2.988 0 0 0-2.606-5.376L299.3 311.86a2.986 2.986 0 0 0 1.09 5.669M304.447 350.341a2.968 2.968 0 0 0 1.518-.29l37.535-18.163a2.989 2.989 0 0 0-2.605-5.377l-37.536 18.163a2.986 2.986 0 0 0 1.088 5.667M308.505 383.156a2.983 2.983 0 0 0 1.517-.292l37.584-18.186a2.988 2.988 0 0 0-2.605-5.376l-37.585 18.185a2.987 2.987 0 0 0 1.089 5.669M312.563 415.97a2.976 2.976 0 0 0 1.517-.292l37.41-18.102a2.986 2.986 0 0 0 1.387-3.99 2.989 2.989 0 0 0-3.992-1.386l-37.41 18.102a2.984 2.984 0 0 0 1.088 5.668"/>
        <path fill="#592020" d="M440.152 441.645c-.94.27-1.636 1.074-1.812 2.038-.154.84-.294 2.048-.294 3.654v5.476s1.043 1.494 4.2 2.106l.879-.513s7.094 5.122 10.436 5.552c4.362.56 8.893-1.27 5.405-5.552-3.293-4.042-8.268-5.777-9.653-8.978-.16-.372-.342-.743-.618-1.042-2.346-2.534-5.105-3.733-8.543-2.741"/>
        <path fill="#FFB591" d="M440.833 434.692l-.646 8.837s2.937 2.465 6.525 1.07l1.429-9.608s-4.766-1.494-7.308-.299"/>
        <path fill="#8BE8DC" d="M428.09 356.752l23.814 18.777c2.477 2.4 4.288 6.153 3.891 9.58-1.704 14.712-3.244 34.748-5.052 43.469-.01.047-.022.096-.034.157-.144.668-.275 1.313-.407 1.934-.07.323-.143.634-.203.931-.502 2.342-1.96 9.703-1.96 9.703-3.277.68-5.776.203-9.206-1.04 0 0 .61-18.34.969-27.015.322-7.944.646-19.625.981-21.834-13.087-8.791-24.743-16.957-28.28-21.57 5.484-7.528 15.488-13.092 15.488-13.092"/>
        <path fill="#592020" d="M466.855 427.73c-.94.27-1.637 1.074-1.814 2.037-.153.841-.292 2.048-.292 3.655v5.477s1.043 1.492 4.199 2.104l.88-.513s7.094 5.122 10.436 5.552c4.361.56 8.893-1.27 5.404-5.552-3.292-4.042-8.267-5.777-9.652-8.977-.162-.373-.342-.744-.618-1.043-2.346-2.533-5.107-3.732-8.543-2.74"/>
        <path fill="#FFB591" d="M467.536 420.777l-.648 8.837s2.94 2.465 6.527 1.07l1.427-9.607s-4.764-1.496-7.306-.3"/>
        <path fill="#8BE8DC" d="M453.781 335.472l24.826 26.14c2.476 2.402 4.286 6.154 3.89 9.582-1.705 14.713-3.244 34.747-5.05 43.468-.012.05-.024.096-.036.157-.143.668-.274 1.313-.407 1.934-.07.323-.142.634-.203.931-.501 2.342-1.961 9.703-1.961 9.703-3.275.68-5.774.204-9.205-1.04 0 0 .609-18.34.967-27.013.324-7.946 1.205-20.65 1.54-22.86-13.816-10.358-20.532-18.537-25.854-23.103 5.483-7.527 11.493-17.9 11.493-17.9"/>
        <path fill="#8BE8DC" d="M411.286 359.203v7.621c0 2.979 3.768 5.693 6.348 4.203l34.205-20.264c1.198-.69 2.486-2.922 2.486-4.304v-7.623c0-2.979-2.328-9.273-4.909-7.784l-37.582 18.252c-1.197.692-.548 8.517-.548 9.899"/>
        <path fill="#DC4241" d="M446.316 264.927s9.504 2.493 11.516 18.529c3.345 26.63 9.717 55.463 11.518 55.513 0 0-1.829 0-6.93 2.284 0 0-8.093-15.21-10.706-24.768-6.032-22.082-5-39.404-5.398-51.558"/>
        <path fill="#F65A4C" d="M453.781 279.275v56.196c-.627.977-2.668 1.88-3.767 2.45-23.985 12.471-28.246 13.816-35.12 15.309-3.06.664-4.423-.986-4.11-5.526 1.251-18.118-2.644-64.07.124-68.106 2.199-3.202 7.974-6.226 16.342-11.016 8.37-4.768 15.554-4.445 19.584-3.502 4.113.969 6.469 3.573 6.947 14.195"/>
        <path fill="#FFB591" d="M439.9 261.205l-2.645 11.983c-5.254 2.342-8.866 1.007-11.488-2.53l2.644-11.984c4.367-1.595 8.196-.751 11.489 2.531"/>
        <path fill="#FF8671" d="M438.826 266.07l-1.07 4.855c-7.783.281-9.74-10.465-9.74-10.465l10.81 5.61z"/>
        <path fill="#FFB591" d="M428.4 238.115l-2.345 10.627c-1.342 6.08.967 12.455 6.03 16.083 2.732 1.957 6.095 3.775 9.961 4.718 4 .977 8.016-1.574 8.902-5.59l4.857-22.015s-16.06-12.3-27.405-3.823"/>
        <path fill="#592020" d="M461.642 237.159c-.382 5.424-6.384 5.317-6.384 5.317-5.487-2.832-14.3-2.222-14.3-2.222-.357 1.649-1.686 2.58-3.3 3.787-.237.18-.455.43-.645.729 0 0 0 .012-.012.036-.168.632-2.857 10.646-1.84 14.337.107.371.262.753.478 1.112 1.758-2.701 5.93-4.183 8.512-4.648 2.99-.55 6.073 1.636 6.073 1.636 1.65-.297 2.272.478 2.272.478.933 1.971-.933 4.242-.933 4.242s-.405-1.278-1.889-1.482c-1.243-.167-2.39-.43-5.033-.98-1.804-.37-4.842 1.9-6.588 3.37 2.595 1.983 6.3 3.25 8.764 2.82 3.802-.67 4.341-2.7 4.341-2.7s.298 8.77-8.107 9.14c-8.417.37-13.498-8.256-13.57-11.674-.072-3.416 3.659-12.222 3.659-12.222l.012-.012.574-1.864-2.499 1.936c-3.54 3.095-4.15 10.418-4.15 10.418-4.77-3.392-2.174-15.986-1.386-20.91.778-4.934 4.663-5.195 4.663-5.195 5.213-7.218 19.368-1.973 22.465-2.223 3.324-.263 9.206 1.35 8.823 6.774"/>
        <path fill="#FFB591" d="M433.722 246.36s-4.848-4.267-6.866-.451c-1.568 2.968-.54 9.697 3.63 9.574l3.236-9.124z"/>
        <path fill="#8996CA" d="M439.622 374.31l-21.556-12.299c-1.127-.642-1.12-2.268.011-2.903l25.329-14.202a1.674 1.674 0 0 1 1.598-.02l21.628 11.431c1.153.61 1.193 2.246.072 2.91l-25.402 15.068a1.67 1.67 0 0 1-1.68.015"/>
        <path fill="#C0C8CE" d="M439.622 371.77l-21.556-12.298c-1.127-.642-1.12-2.269.011-2.904l25.329-14.2a1.67 1.67 0 0 1 1.598-.02l21.628 11.43c1.153.61 1.193 2.245.072 2.91l-25.402 15.068a1.67 1.67 0 0 1-1.68.015"/>
        <path fill="#DDE3E8" d="M417.243 360.486v-2.383l22.288 12.272 1.232 4.626-22.594-12.918a1.842 1.842 0 0 1-.926-1.597"/>
        <path fill="#DDE3E8" d="M439.53 345.406v27.48c0 1.433 1.184 2.45 2.463 2.437h4.746v-2.377l34.613-19.967a2.447 2.447 0 0 0 1.218-2.114v-25.998h2.237v-3.92h-4.71c-.396 0-.802.095-1.184.323l-38.164 22.02a2.441 2.441 0 0 0-1.218 2.116"/>
        <path fill="#FFF" d="M483.58 321.273l-38.16 22.018a2.438 2.438 0 0 0-1.22 2.111v27.48c0 1.877 2.033 3.05 3.66 2.113l38.159-22.02a2.435 2.435 0 0 0 1.22-2.11v-27.48c0-1.877-2.032-3.051-3.66-2.112"/>
        <path fill="#C0C8CE" d="M464.687 349.242c-.01 2.15 1.25 3.901 2.817 3.91 1.566.006 2.842-1.733 2.853-3.885.008-2.153-1.252-3.902-2.818-3.909-1.565-.007-2.842 1.732-2.852 3.884"/>
        <path fill="#DC4241" d="M410.907 279.597s-11.032 29.739-6.566 45.295c3.786 13.189 22.716 25.91 32.28 28.48 0 0 1.689-2.948 2.91-6.292 0 0-14.405-6.553-22.841-26.983-4.333-10.493 3.79-27.283 3.79-27.283s1.379-12.097-9.573-13.217"/>
        <path fill="#FFB591" d="M436.62 353.371l2.91 1.423v-7.714z"/>
        <path fill="#164C57" d="M170.162 303.248c0 7.046-16.321 12.756-36.45 12.756-20.133 0-36.453-5.71-36.453-12.756 0-7.045 16.32-12.756 36.452-12.756 20.13 0 36.45 5.711 36.45 12.756"/>
        <path fill="#FFF" d="M112.137 292.334c-.94.272-1.638 1.074-1.813 2.037-.155.842-.294 2.049-.294 3.655v5.477s1.044 1.493 4.2 2.105l.88-.513s7.094 5.123 10.435 5.552c4.361.561 8.893-1.269 5.406-5.552-3.294-4.042-8.27-5.777-9.654-8.977-.161-.373-.342-.745-.618-1.043-2.346-2.532-5.105-3.733-8.542-2.741"/>
        <path fill="#FFB591" d="M112.817 285.382l-.646 8.837s2.938 2.464 6.525 1.07l1.429-9.609s-4.766-1.493-7.308-.298"/>
        <path fill="#213E57" d="M110.912 290.961c3.443 1.23 5.942 1.708 9.218 1.028 0 0 1.447-7.36 1.948-9.702.06-.298.133-.61.203-.932.132-.622.264-1.266.407-1.936a3.02 3.02 0 0 1 .036-.154c2.057-9.93 5.045-25.845 6.803-38.377v-42.595s-7.376-2.068-15.005 2.174v39.894c-.335 2.21-2.319 15.628-2.64 23.574-.36 8.674-.97 27.026-.97 27.026"/>
        <path fill="#FFF" d="M139.835 286.83c-.941.271-1.638 1.074-1.814 2.037-.154.841-.293 2.049-.293 3.656V298s1.044 1.492 4.2 2.105l.88-.512s7.094 5.122 10.435 5.55c4.36.562 8.892-1.268 5.405-5.55-3.294-4.044-8.269-5.779-9.654-8.978-.16-.374-.342-.745-.618-1.044-2.346-2.532-5.105-3.732-8.54-2.74"/>
        <path fill="#FFB591" d="M140.515 279.877l-.647 8.837s2.94 2.464 6.525 1.07l1.43-9.608s-4.766-1.494-7.308-.299"/>
        <path fill="#213E57" d="M138.721 285.752c3 1.494 6.026 1.72 9.099.729 0 0 1.65-9.582 2.152-11.924.06-.299.131-.61.202-.933.12-.597.263-1.242.408-1.936a2.09 2.09 0 0 1 .034-.154c.073-.347.144-.694.216-1.051 2.045-9.978 4.89-25.223 6.587-37.326v-42.595s-7.376-2.067-15.003 2.174v39.896c-.335 2.209-2.32 15.627-2.643 23.573-.358 8.673-1.052 29.547-1.052 29.547"/>
        <path fill="#213E57" d="M114.411 203.792v7.623c0 2.978 3.769 5.691 6.348 4.203l34.205-20.265c1.199-.69 2.487-2.922 2.487-4.305v-7.623c0-2.977-2.329-9.273-4.91-7.784l-37.581 18.253c-1.197.69-.549 8.516-.549 9.898"/>
        <path fill="#DC4241" d="M149.442 109.516s11.869 3.647 10.871 19.776c-.996 16.13 5.68 21.65 22.712 20.91 0 0-1.736 3.328-.693 7.367 0 0-10.778 2.298-20.025-1.393-15.208-6.07-12.467-34.506-12.865-46.66"/>
        <path fill="#F65A4C" d="M156.906 123.864v56.196c-.628.977-2.667 1.88-3.766 2.45-23.985 12.473-28.246 13.816-35.12 15.31-3.06.665-4.423-.987-4.11-5.526 1.251-18.12-2.645-64.07.124-68.107 2.198-3.202 7.974-6.225 16.342-11.016 8.37-4.768 15.554-4.445 19.584-3.5 4.113.967 6.469 3.571 6.946 14.193"/>
        <path fill="#FFB591" d="M143.742 103.936l-1.738 12.146c-5.065 2.73-8.766 1.67-11.646-1.664l1.738-12.146c4.236-1.917 8.117-1.363 11.646 1.664"/>
        <path fill="#FF8671" d="M143.036 108.868l-.704 4.92c-6.106-1.38-10.496-9.707-10.496-9.707l11.2 4.787z"/>
        <path fill="#FFB591" d="M130.545 81.771l-1.542 10.773c-.883 6.164 1.897 12.346 7.218 15.585 2.872 1.749 6.361 3.311 10.287 3.96 4.062.675 7.875-2.168 8.458-6.241l3.195-22.318s-16.94-11.062-27.616-1.759"/>
        <path fill="#592020" d="M157.657 84.115s5.99-.351 5.961-5.787c-.026-5.434-6.013-6.609-9.304-6.095-3.067.48-17.581-3.68-22.237 3.901 0 0-3.852.556-4.262 5.526-.408 4.971-2.051 17.724 2.96 20.747 0 0 .054-7.34 3.35-10.692l2.344-2.122-.629 2.768a2.751 2.751 0 0 0 2.995-2.186c.243-1.213.664-2.547 1.39-3.186 1.511-1.328 2.766-2.356 3.005-4.03 0 0 8.736-1.266 14.427 1.156"/>
        <path fill="#FFB591" d="M136.47 89.594s-5.156-3.891-6.881.064c-1.342 3.077.586 10.664 4.785 9.147l2.095-9.211z"/>
        <path fill="#DDE3E8" d="M193.538 134.283c.214.71.214 1.5-.094 2.277l-15.042 38.197a3.488 3.488 0 0 1-2.641 2.143l-15.873 2.666-6.988 1.189-.332.258.201 1.474-3.726-1.46-.323-.12c-1.608-.697-2.574-2.6-1.85-4.435l15.15-38.813a3.451 3.451 0 0 1 2.722-2.157l25.002-3.631a3.53 3.53 0 0 1 1.89.255l3.713 1.473-1.81.684z"/>
        <path fill="#FFF" d="M197.155 138.018l-15.047 38.196a3.453 3.453 0 0 1-2.639 2.14l-25.1 4.234c-2.647.446-4.769-2.161-3.793-4.659l15.152-38.807a3.452 3.452 0 0 1 2.721-2.161l24.995-3.623c2.625-.38 4.683 2.213 3.711 4.68"/>
        <path fill="#DDE3E8" d="M172.4 158.502c-1.104 2.803-.59 5.629 1.148 6.313 1.739.685 4.043-1.034 5.147-3.836 1.104-2.802.59-5.63-1.15-6.313-1.738-.684-4.042 1.033-5.146 3.836"/>
        <path fill="#DC4241" d="M114.034 124.185s-10.763 21.605-7.34 41.432c3.423 19.828 34.817 10.258 43.248 6.374l-2.778-7.317s-20.954 2.837-24.957.148c-3.291-2.209-1.464-13.405.748-20.718 1.217-4.026 1.342-8.34.035-12.338-1.334-4.075-3.925-8.037-8.956-7.581"/>
        <path fill="#FFB591" d="M147.164 164.673s1.546-2.807 4.235-4.45c2.69-1.643 4.41-1.194 4.485-.672.075.523-2.84 1.942-2.84 2.838 0 .896 8.017-2.54 9.49-2.016 1.472.525 1.643 8.14-1.494 9.856-3.139 1.719-11.098 1.762-11.098 1.762l-2.778-7.318zM193.083 151.784c.243-.177.602-1.467-.74-1.597l-.702 1.783c.418.194 1.03.117 1.442-.186M186.793 160.81c.09.056.18.097.27.126l-.016.032c.714.37 1.425.623 2.097.709 2.137.281 4.96-6.076 4.179-7.346-.268-.442-.807-.758-1.35-1.01 0 0-.14-.064-.362-.155a6.297 6.297 0 0 0-.811-.27c-.614-.154-1.305-.198-1.634.228-.672.848-4.209 6.558-2.373 7.686"/>
        <path fill="#333" d="M167.478 536.967c0 9.285-18.306 16.812-40.89 16.812-22.582 0-40.889-7.527-40.889-16.812 0-9.286 18.307-16.814 40.89-16.814 22.583 0 40.889 7.528 40.889 16.814" opacity=".23"/>
        <path fill="#FFF" d="M143.297 528.683c.942.267 1.642 1.067 1.822 2.03.16.841.304 2.047.31 3.654.018 3.585.025 5.476.025 5.476s-1.037 1.498-4.19 2.125l-.882-.509s-7.07 5.154-10.41 5.599c-4.358.579-8.898-1.23-5.43-5.526 3.274-4.059 8.241-5.816 9.611-9.024.161-.372.34-.745.615-1.045 2.334-2.543 5.087-3.756 8.529-2.78"/>
        <path fill="#FFB591" d="M142.584 521.735l.688 8.834s-2.928 2.476-6.522 1.099l-1.47-9.601s4.759-1.515 7.304-.332"/>
        <path fill="#213E57" d="M144.516 527.306c-3.438 1.247-5.935 1.736-9.213 1.069 0 0-1.482-7.353-1.994-9.693-.06-.298-.134-.609-.208-.932-.134-.62-.268-1.264-.414-1.933a5.386 5.386 0 0 0-.037-.154c-2.101-9.92-5.162-25.821-6.977-38.347l-.193-42.593s7.367-2.1 15.014 2.106l-1.219 39.836c.346 2.21 2.681 16.151 3.04 24.096.397 8.67 2.2 26.545 2.2 26.545"/>
        <path fill="#FFF" d="M121.462 523.305c.942.268 1.642 1.067 1.822 2.03.159.84.304 2.047.31 3.653l.025 5.477s-1.037 1.498-4.19 2.125l-.882-.51s-7.07 5.155-10.41 5.6c-4.358.58-8.898-1.23-5.43-5.527 3.274-4.058 8.241-5.816 9.611-9.022.161-.374.34-.746.614-1.046 2.335-2.542 5.088-3.757 8.53-2.78"/>
        <path fill="#FFB591" d="M120.75 516.356l.687 8.834s-2.928 2.478-6.522 1.1l-1.47-9.602s4.759-1.515 7.304-.332"/>
        <path fill="#213E57" d="M122.57 522.223c-2.993 1.507-6.018 1.748-9.094.77 0 0-1.695-9.575-2.207-11.914-.062-.3-.134-.609-.208-.932-.122-.596-.268-1.24-.415-1.933-.011-.06-.024-.107-.037-.155l-.22-1.05c-2.09-9.968-5.004-25.2-6.756-37.296l-.195-42.594s6.356-2.243 14.002 1.964l1.194 40.036c.345 2.209 2.39 15.619 2.749 23.56.4 8.674 1.188 29.544 1.188 29.544"/>
        <path fill="#213E57" d="M140.846 436.324l-.662 10.661c.013 2.977-10.015-.907-12.602-2.383l-21.666-12.705c-1.2-.685-2.5-2.911-2.507-4.293l-.034-7.623c-.015-2.977 2.286-9.283 4.873-7.805l25.424 13.171c1.201.685 7.614 1.718 7.174 10.977"/>
        <path fill="#FFB591" d="M77.651 386.874s-3.95-1.803-6.582.46c-2.633 2.261-.678 8.214.843 8.363 1.52.148 6.465-1.458 6.465-1.458s2.11-4.723-.726-7.365"/>
        <path fill="#7CCECE" d="M108.718 348.793s-6.795.236-6.795 17.258c0 16.16-7.238 21.487-24.272 20.823 0 0 1.751 3.32.726 7.365 0 0 10.788 2.248 20.02-1.484 15.18-6.138 9.978-31.806 10.32-43.962"/>
        <path fill="#FFF" d="M73.004 386.805v10.057c0 1.68-3.384 3.036-7.553 3.036-4.168 0-7.55-1.357-7.55-3.036v-10.057h15.103z"/>
        <path fill="#FFF" d="M73.311 390.375c-1.237 0-2.242.978-2.242 2.183 0 1.203 1.005 2.182 2.242 2.182 1.238 0 2.245-.98 2.245-2.182 0-1.205-1.007-2.183-2.245-2.183m0 5.844c-2.052 0-3.723-1.642-3.723-3.661 0-2.02 1.67-3.662 3.723-3.662s3.723 1.641 3.723 3.662c0 2.019-1.67 3.661-3.723 3.661"/>
        <path fill="#E6E6E6" d="M73.003 386.804c0 1.678-3.38 3.04-7.552 3.04-4.17 0-7.55-1.362-7.55-3.04 0-1.68 3.38-3.04 7.55-3.04 4.172 0 7.552 1.36 7.552 3.04"/>
        <path fill="#28225E" d="M72.057 386.805c0 .103-.048.217-.145.34-.584.748-2.936 1.751-6.461 1.751-3.526 0-5.878-1.003-6.46-1.75-.097-.124-.144-.238-.144-.341 0-.74 2.508-2.094 6.604-2.094 4.097 0 6.606 1.354 6.606 2.094"/>
        <path fill="#2C3673" d="M71.912 387.145c-.585.748-2.935 1.751-6.46 1.751-3.526 0-5.878-1.003-6.461-1.75.583-.749 2.935-1.752 6.46-1.752 3.526 0 5.876 1.003 6.46 1.751"/>
        <path fill="#FFB591" d="M75.823 389.857s-2.278.613-1.793 2.105c.485 1.495 1.526.596 1.526.596s2.727.042 3.14-1.042c.415-1.084-1.045-4.642-1.045-4.642l-1.828 2.983z"/>
        <path fill="#A0EAE6" d="M103.648 360.42l.255 56.194c.633.974 2.672 1.88 3.78 2.434 13.754 6.899 21.051 11.855 27.933 13.318 3.063.652 5.586.206 5.252-4.33-1.333-18.114 2.251-67.026-.92-71.74-2.167-3.221-4.95-4.48-9.818-6.69-8.77-3.984-15.56-2.264-20.22-1.175-4.788 1.122-5.646 4.48-6.262 11.988"/>
        <path fill="#FFB591" d="M117.017 339.257l.055 12.047c4.558 3.334 8.3 2.801 11.55-.053l-.054-12.048c-3.861-2.433-7.712-2.417-11.551.054"/>
        <path fill="#FF8671" d="M117.04 344.148l.022 4.881c6.125-.521 11.515-8.032 11.515-8.032l-11.538 3.151z"/>
        <path fill="#FFB591" d="M134.698 321.217l-1.424 10.59c-.814 6.06-5.093 11.158-10.988 12.798-3.18.884-7.014 2.049-10.777.995-1.571-.44-2.584-2.52-3.282-6.028-.53-2.654-.693-5.37-.605-8.075l.515-15.992s18.96-5.93 26.56 5.712"/>
        <path fill="#592020" d="M129.117 325.576c2.984-.542 2.915 7.159 0 9.345-.494.369-1.867 9.242.989 8.359 1.303-.403 10.738-12.697 7.223-24.56-2.689-9.07-9.552-10.3-12.636-10.372-5.906-2.032-13.558-1.136-17.037 2.425-.036.036-.083.071-.132.12-.753.789-1.29 1.708-1.565 2.747-.038.19-.06.37-.085.538-1.184 5.103 1.494 11.984 1.818 10.586.778-3.488 3.132-4.241 4.59-4.36 1.604 2.353 5.021 6.476 9.422 6.296.992-.036 1.734-.286 2.283-.694 0 0-.34 5.097.656 6.939 0 0-.17-6.522 4.474-7.369"/>
        <path fill="#28225E" d="M105.958 313.64c-.168.67.12-.585 0 0"/>
        <path fill="#7CCECE" d="M138.066 354.096s14.936 11.421 23.888 10.212c0 0 8.174-3.793 13.849-7.069 5.677-3.276 11.296-6.551 11.296-6.551l2.155 5.455s-15.6 15.52-24.139 17.915c-8.54 2.397-23.814-3.476-23.814-3.476s-8.538-6.87-3.235-16.486"/>
        <path fill="#FFB591" d="M187.099 350.688s-.735-1.412-.224-2.26c.51-.849 1.93-2.07 2.378-2.24.448-.17 2.392-.053 2.242.843 0 0 4.735-3.419 5.928-2.437.847.697-3.038 3.584-3.038 3.584s2.24 1.892 2.141 4.182c-.099 2.29-2.938 2.192-2.938 2.192s-2.99 2.04-4.335 1.591c-1.344-.447-2.154-5.455-2.154-5.455"/>
        <path fill="#FFF" d="M70.75 211.452c-5.42 1.178-7.594 3.35-8.774 8.768-.29 1.337-2.197 1.337-2.487 0-1.18-5.418-3.353-7.59-8.774-8.768-1.338-.29-1.338-2.196 0-2.486 5.421-1.18 7.595-3.351 8.774-8.77.29-1.336 2.196-1.336 2.487 0 1.18 5.419 3.353 7.59 8.775 8.77 1.338.29 1.338 2.195 0 2.486M80.67 233.898c-2.827.613-3.961 1.747-4.576 4.574-.152.698-1.147.698-1.298 0-.615-2.827-1.75-3.96-4.577-4.574-.697-.152-.697-1.146 0-1.297 2.827-.615 3.962-1.749 4.577-4.574.151-.698 1.146-.698 1.298 0 .615 2.825 1.75 3.959 4.577 4.574.698.151.698 1.145 0 1.297M431.458 157.89c-5.423 1.178-7.596 3.35-8.774 8.767-.291 1.337-2.199 1.337-2.489 0-1.178-5.418-3.351-7.59-8.774-8.767-1.337-.29-1.337-2.197 0-2.487 5.423-1.179 7.596-3.35 8.774-8.768.29-1.337 2.198-1.337 2.489 0 1.178 5.418 3.351 7.59 8.774 8.768 1.338.29 1.338 2.196 0 2.487M414.251 134.184c-2.827.615-3.962 1.748-4.577 4.575-.15.697-1.146.697-1.298 0-.615-2.827-1.75-3.96-4.577-4.575-.697-.152-.697-1.146 0-1.297 2.828-.615 3.962-1.747 4.577-4.574.152-.698 1.148-.698 1.298 0 .615 2.827 1.75 3.959 4.577 4.574.699.151.699 1.145 0 1.297"/>
    </g>
</svg>
